<svg id="彩色" xmlns="http://www.w3.org/2000/svg" viewBox="0 0 452.11 416.25"><defs><style>.cls-1{fill:#e60012;}.cls-2{fill:#750069;}.cls-3{font-size:36px;fill:#231815;font-family:HYJiangNanKaiSong-W, HYJiangNanKaiSong;letter-spacing:0.98em;}.cls-4{fill:#395ca3;}.cls-5{fill:#0086d1;}</style></defs><polygon class="cls-1" points="234.16 43.19 224.07 35.5 213.98 43.19 217.83 30.74 207.74 23.05 220.21 23.05 224.07 10.61 227.92 23.05 240.39 23.05 230.3 30.74 234.16 43.19"/><path class="cls-2" d="M391.47,245.17l-13.06,20.55H360.89V430.24l-25-22.36V363H313.84v25.16l-12.22-10.93-12.21,10.93V363H267.36v44.88l-25,22.36V265.72H224.84l-13.06-20.55H391.47Zm-55.58,91.31V319.33l-15-9.58h-7v26.73Zm0-45V265.72H267.36v25.79l8.93-5.69H327Zm-46.48,45V309.75h-7l-15,9.58v17.15Z" transform="translate(-77.67 -193.96)"/><polygon class="cls-2" points="281.51 247.24 236.17 247.24 236.17 276.12 236.19 276.14 224 287.05 223.9 287.05 211.72 276.14 211.74 276.12 211.74 247.24 166.4 247.24 196.08 220.72 211.74 220.72 211.74 206.69 223.95 195.76 236.17 206.69 236.17 220.72 251.83 220.72 281.51 247.24"/><text class="cls-3" transform="translate(24.43 366.26)">人工智能二班</text><text x="-77.67" y="-193.96"/><polygon class="cls-4" points="424.54 120.83 410.79 120.83 385.79 120.83 368.26 120.83 343.26 120.83 325.74 120.83 300.74 120.83 283.22 120.83 283.22 141.96 300.74 141.96 300.74 251.39 325.74 273.75 325.74 141.96 343.26 141.96 343.26 286.36 368.26 286.36 368.26 141.96 385.79 141.96 385.79 286.36 410.79 286.36 410.79 141.96 447.91 141.96 424.54 120.83"/><polygon class="cls-4" points="122.17 120.83 104.65 120.83 79.65 120.83 62.12 120.83 37.12 120.83 23.37 120.83 0 141.96 37.12 141.96 37.12 286.36 62.12 286.36 62.12 141.96 79.65 141.96 79.65 286.36 104.65 286.36 104.65 141.96 122.17 141.96 122.17 273.75 147.17 251.39 147.17 141.96 164.69 141.96 164.69 120.83 147.17 120.83 122.17 120.83"/><path class="cls-5" d="M301.63,194l-34.42,44.23H336Zm0,34.58-8.32,6.05,3.18-9.79-8.33-6h10.29l3.17-9.79,3.19,9.79H315.1l-8.32,6.06,3.19,9.78Z" transform="translate(-77.67 -193.96)"/></svg>